<svg enable-background="new 0 0 64 64" height="64" viewBox="0 0 64 64" width="64" xmlns="http://www.w3.org/2000/svg" xmlns:xlink="http://www.w3.org/1999/xlink"><linearGradient id="a" gradientTransform="matrix(.7071068 .7071068 -.7071068 .7071068 32.244198 -13.153685)" gradientUnits="userSpaceOnUse" x1="26.192593" x2="40.990284" y1="33.619" y2="33.619"><stop offset="0" stop-color="#231815" stop-opacity="0"/><stop offset="1" stop-color="#231815" stop-opacity=".2"/></linearGradient><linearGradient id="b" gradientTransform="matrix(.7071068 .7071068 -.7071068 .7071068 32.244198 -13.153685)" gradientUnits="userSpaceOnUse" x1="14.529603" x2="26.192593" y1="12.59139" y2="12.59139"><stop offset="0" stop-color="#231815" stop-opacity="0"/><stop offset=".6502058" stop-color="#231815" stop-opacity=".2"/></linearGradient><linearGradient id="c" gradientTransform="matrix(.7071068 .7071068 -.7071068 .7071068 32.244198 -13.153685)" gradientUnits="userSpaceOnUse" x1="28.258261" x2="37.823063" y1="37.175388" y2="37.175388"><stop offset=".3045267" stop-color="#fff" stop-opacity=".4"/><stop offset="1" stop-color="#fff" stop-opacity="0"/></linearGradient><linearGradient id="d" gradientTransform="matrix(.7071068 .7071068 -.7071068 .7071068 32.244198 -13.153685)" gradientUnits="userSpaceOnUse" x1="12.863215" x2="26.192593" y1="9.27188" y2="9.27188"><stop offset="0" stop-color="#fff" stop-opacity=".4"/><stop offset="1" stop-color="#fff" stop-opacity="0"/></linearGradient><path d="m46.1225166 20.8833656c2.9558258-2.9558258 2.7646332-7.8669128-.5735779-10.5697927-1.8496323-1.4976082-4.3984299-1.8664665-6.6688423-1.1528864-1.7457962.5486965-2.8910103 1.5524759-3.6757736 2.7282505-.1404877.2104883-.3581924.3559227-.610714.372509-.563549.037014-1.6566811-.0358858-2.9755707-.8557367-1.3070488-.8124895-2.0804634-1.8291082-2.4453831-2.404644-.1684093-.2656107-.1662045-.6078253.0041313-.8722057 1.356966-2.1061602 3.2717648-3.9538431 6.0798702-5.1473637 5.3132172-2.2582605 11.5975494-1.3509712 15.7396431 2.6706033 5.7050743 5.5390821 5.7560883 14.6550388.153038 20.2580891l-36.5250176 36.5250191c-.223732.223732-.5528469.308033-.8492022.1971931-.5381823-.2012863-1.4651709-.6828842-2.6047306-1.8224449-1.1305141-1.1305161-1.5935488-2.0318947-1.7824068-2.5566483-.1053886-.2928314-.0188789-.6165276.2011843-.8365898z" fill="#fff"/><path d="m14.043457 63.6806641c-.2114258 0-.4194336-.0371094-.6176758-.1103516-.6660156-.2509766-1.7177734-.8085938-2.9624023-2.0537109-1.2456055-1.2451172-1.7841797-2.2783203-2.0166016-2.9257813-.2329102-.6455078-.0620117-1.3847656.4360352-1.8818359l36.5322266-36.5327148c1.2226563-1.222168 1.8710938-2.9140625 1.78125-4.6411133-.0917969-1.7514648-.9003906-3.3300781-2.2763672-4.4443359-1.5107422-1.2231445-3.7548828-1.6005859-5.7402344-.9760742-1.3525391.425293-2.3808594 1.1875-3.1435547 2.3295898-.3222656.4814453-.8232422.7783203-1.3769531.8149414-.6982422.046875-2.0239258-.0439453-3.5688477-1.0043945-1.4921875-.9272461-2.3710938-2.1015625-2.762207-2.71875-.3759766-.5932617-.3730469-1.3583984.0083008-1.9492188 1.6191406-2.5131836 3.815918-4.3725586 6.5288086-5.5258789 2.0146484-.855957 4.1425781-1.2900391 6.3242188-1.2900391 4.0078125 0 7.7382813 1.4785156 10.5029297 4.1635742 2.9492188 2.8632813 4.5908203 6.7021484 4.6210938 10.809082.0302734 4.1074219-1.5527344 7.9692383-4.4570313 10.8735352l-36.5249024 36.5253906c-.3432617.3427735-.8125.538086-1.288086.538086zm-3.665039-5.6386719c.1699219.4091797.5703125 1.1318359 1.4990234 2.0605469.9423828.9423828 1.6962891 1.3623047 2.1225586 1.5429687l36.4423828-36.4423828c2.5224609-2.5229492 3.8974609-5.8769531 3.8710938-9.4448242-.0263672-3.5668945-1.4521484-6.9013672-4.0136719-9.3891602-2.390625-2.3203125-5.625-3.5981445-9.1103516-3.5981445-1.9111328 0-3.7753906.3803711-5.5410156 1.1308594-2.3339844.9916992-4.1552734 2.5185547-5.5644531 4.6660156.3276367.4926758.9868164 1.3203125 2.0620117 1.9887695.9848633.6118164 1.7905273.7246094 2.2709961.7114258 1.0087891-1.4799805 2.4082031-2.5097656 4.1630859-3.0615234 2.6152344-.8208008 5.5742188-.3095703 7.5976563 1.3295898 1.796875 1.4545898 2.8955078 3.6030273 3.015625 5.894043.1201172 2.2929688-.7421875 4.5380859-2.3642578 6.1601563z" fill="#898989"/><path d="m46.1225166 20.8833656c2.9558258-2.9558258 2.7646332-7.8669128-.5735779-10.5697927-1.8496323-1.4976082-4.3984299-1.8664665-6.6688423-1.1528864-1.7457962.5486965-2.8910103 1.5524759-3.6757736 2.7282505-.1404877.2104883-.3581924.3559227-.610714.372509-.563549.037014-1.6566811-.0358858-2.9755707-.8557367-1.3070488-.8124895-2.0804634-1.8291082-2.4453831-2.404644-.1684093-.2656107-.1662045-.6078253.0041313-.8722057 1.356966-2.1061602 3.2717648-3.9538431 6.0798702-5.1473637 5.3132172-2.2582605 11.5975494-1.3509712 15.7396431 2.6706033 5.7050743 5.5390821 5.7560883 14.6550388.153038 20.2580891l-36.5250176 36.5250191c-.223732.223732-.5528469.308033-.8492022.1971931-.5381823-.2012863-1.4651709-.6828842-2.6047306-1.8224449-1.1305141-1.1305161-1.5935488-2.0318947-1.7824068-2.5566483-.1053886-.2928314-.0188789-.6165276.2011843-.8365898z" fill="#fff"/><g fill="#c30d23"><path d="m30.2447929 37.3751221c-.1317749-.0811501-.2401829-.1681824-.3619366-.2520981l-1.703886 1.7038879c.2368603.1765175.479702.3516579.7471924.5189209 1.8871555 1.178112 4.1604347 1.8388824 6.7722321 2.0153008l2.3806114-2.3806114c-3.1747475.170639-5.8051033-.3540612-7.8342133-1.6054001z"/><path d="m36.1094208 31.5104961c-.1317749-.081152-.2401848-.1681843-.3619385-.2520981l-1.7038841 1.703886c.2368584.1765175.479702.3516579.7471924.5189209 1.8871536 1.178112 4.1604347 1.8388863 6.7722282 2.0153008l2.3806152-2.3806114c-3.1747474.1706391-5.8051071-.3540611-7.8342132-1.6053982z"/><path d="m41.9740486 25.6458683c-.1317787-.081152-.2401848-.1681843-.3619385-.2520981l-1.7038841 1.703886c.2368584.1765194.479702.3516598.7471924.5189228 1.8871536 1.1781101 4.1604347 1.8388844 6.7722282 2.0153008l2.3806152-2.3806133c-3.1747474.170639-5.805107-.3540611-7.8342132-1.6053982z"/><path d="m24.380167 43.2397499c-.1317768-.0811539-.2401829-.1681862-.3619366-.2520981l-1.703886 1.7038841c.2368603.1765213.479702.3516617.7471924.5189247 1.8871536 1.1781082 4.1604328 1.8388824 6.7722301 2.0153008l2.3806114-2.3806114c-3.1747455.170639-5.8051032-.3540649-7.8342113-1.6054001z"/><path d="m31.4762897 5.4103794c-.1437931.1325431-.294693.2529674-.4342422.3925161-.5402985.5402975-1.0029716 1.125083-1.4334812 1.7263851 3.0983505.3659768 5.5489159 1.2255135 7.3159027 2.580348.7154884-.5204573 1.503334-.8925695 2.3258476-1.1129131-1.8788223-1.7763443-4.4743042-2.9829883-7.7740269-3.5863361z"/><path d="m23.9691391 53.0903893 2.3806133-2.3806152c-3.1747475.170639-5.8051052-.3540611-7.8342133-1.6053963-.1317749-.0811539-.2401829-.1681862-.3619366-.2520981l-1.703886 1.7038841c.2368603.1765213.479702.3516579.7471924.5189247 1.8871556 1.1781082 4.1604348 1.8388824 6.7722302 2.0153008z"/><path d="m11.3322821 56.9397125c1.8871555 1.178112 4.1604347 1.8388863 6.7722311 2.0153008l2.3806114-2.3806114c-3.1747456.170639-5.8051043-.3540611-7.8342113-1.6054001-.1317768-.0811501-.2401838-.1681824-.3619375-.2520981l-1.7038851 1.7038879c.2368593.1765175.4797019.3516579.7471914.5189209z"/><path d="m37.6593361 2.0747604c2.134037 2.2778301 3.4530792 4.5173092 3.9219398 6.6959362.8534012.0581417 1.6958046.2709675 2.4874878.6356659-.2845726-2.56603-1.4855919-5.1561961-3.6098595-7.7374134-.9424285.0420335-1.8789253.1772356-2.7995681.4058113z"/><path d="m47.0913811 19.6701756c-.2737274.4295883-.5937843.83811-.9688644 1.2131901l-.6912498.6912479c2.3395004.9724445 5.1367149 1.197134 8.3684235.6511593.4240189-.8455753.7571144-1.7232647 1.0017967-2.621664-3.0162774.7047481-5.5973932.7316455-7.710106.0660667z"/><path d="m49.6976013 4.5534511c-.7607422-.5802345-1.5645905-1.0733852-2.4020882-1.4795032.164505 3.1081686-.2682037 5.6652498-1.3131065 7.629159.0459175.0435677.0951118.0816126.14011.1266117.5795174.5795183 1.0307884 1.236763 1.3683357 1.9352226 1.4259644-2.1407356 2.1697808-4.8852801 2.206749-8.2114901z"/><path d="m48.1439018 14.9790564c.1050835.8486958.0557899 1.71033-.1450195 2.5451155 2.4561386-.7313385 4.7788658-2.3552494 6.9352493-4.871933-.2097549-.9100075-.5106888-1.8009415-.901619-2.6633415-1.8653716 2.4779748-3.8333206 4.1546563-5.8886108 4.990159z"/></g><path d="m51.1493378 5.8028955c-.1383705-.1383724-.288044-.2576718-.4306107-.3891921 5.1442299 5.5776544 4.4833031 13.7209301-.9308205 19.1350536l-36.520752 36.520752c-.2346096.2346077-.5805244.3035049-.8893261.1821594-.472496-.1856766-.6818094-.0385017-1.6006222-.866909.126049.1398582.2450924.2771034.3931808.4251938 1.1395597 1.1395607 2.0665483 1.6211586 2.6047306 1.8224449.2963552.1108398.6254702.0265388.8492022-.1971931l36.5250168-36.5250168c5.5524989-5.5524955 5.5524989-14.5547967.0000011-20.1072927z" fill="url(#a)"/><path d="m45.691906 10.440526c-.1245689-.146554-.5565529-.5025501-.6949234-.6409225-2.7762489-2.776248-7.2773972-2.776248-10.0536461 0-.3296585.3296595-.6152687.6857386-.8645134 1.0591679-.1405067.2105122-.3582497.355979-.6108017.3725624-.5635643.0370064-1.3509369.1743965-2.6697884-.6454287-.3812141-.2370138-.7044926-.4918728-.9980621-.7476015.4288216.5019464 1.0186691 1.0706244 1.8178673 1.5674057 1.3188477.8198252 2.411953.8927469 2.9755173.8557396.252552-.0165834.470295-.1620493.6108017-.3725624.2492485-.3734283.5348549-.7295084.8645134-1.0591679 2.6378745-2.6378756 6.8299636-2.7640782 9.6230354-.3891926z" fill="url(#b)"/><path d="m10.276248 59.2698936c-.1208715-.304306.1731672-.8632774.4046965-1.0948067l36.5760956-36.5760956c2.4986229-2.4986229 2.7918549-6.8428898.293232-9.3415136-.1272964-.1272964-.2611275-.2436399-.3960648-.3579588 2.1297112 2.5138111 1.7201347 6.5741215-.6511917 8.9454479l-36.5802623 36.5802651c-.2359276.2359276-.5211382.8010826-.3980875 1.1112175.1914997.4826469.6180611 1.251194 1.5653753 2.1985092.136179.1361771.2633371.2468605.3924284.3629761-.7010145-.7796898-1.0415306-1.4134102-1.2062215-1.8280411z" fill="url(#c)"/><path d="m30.1257 9.1279297c.3030186-.4685478 1.1196461-1.583384 1.9187908-2.3825307 5.1375504-5.1375504 13.3295631-5.6290779 18.360672-1.0181289-.1205254-.1314945-.2296181-.2698154-.3569145-.3971119-4.9972458-4.9972463-13.485939-4.6106248-18.7577801.6612172-.6757889.6757898-1.2581825 1.4059515-1.7644596 2.1699166-.1763611.2661266-.3855972.8186865-.2132416 1.0874233.2388058.3723459.6503029.9208221 1.2717762 1.4560852-.542017-.6421279-.7618637-1.1083239-.4588432-1.5768708z" fill="url(#d)"/></svg>